<?xml version="1.0" encoding="UTF-8"?>
<svg viewBox="0 0 278.3121 407.39142" xmlns="http://www.w3.org/2000/svg">
 <g transform="matrix(.40542 0 0 .40542 -21.51 19.287)">
  <path d="m108.87 955.34c-14.541-3.8114-26.716-11.923-33.388-22.246-3.919-6.0635-6.923-14.04-6.923-18.383 0-1.2842-2.1617-4.7306-5.0058-7.9808-2.7532-3.1462-6.2407-8.2349-7.75-11.308l-2.7442-5.5877v-838l2.9282-6c5.4319-11.13 17.766-20.687 32.579-25.242 4.9881-1.534 15.708-1.7179 116.74-2.0026l111.25-0.31341 0.00137-4.7209c0.00139-4.8118 2.1658-18.275 3.8179-23.749 1.2702-4.2085 4.997-11.351 7.9385-15.215 6.3856-8.3872 26.531-19.244 39.541-21.309 10.928-1.7347 33.795-0.70947 44.201 1.9817 28.378 7.3389 46.5 29.066 46.5 55.75v7.2598l107.25 0.28012 107.25 0.28012 7.8278 2.7691c14.619 5.1714 24.35 13.169 30.231 24.848 2.2347 4.4374 4.4829 7.364 6.7186 8.7458 5.4677 3.3792 14.622 13.675 17.237 19.387 1.3376 2.9217 2.8852 8.4483 3.4392 12.281 1.3056 9.0346 1.3983 819.26 0.09467 828.28-2.7993 19.359-18.026 34.434-40.616 40.211-7.6434 1.9548-11.772 1.9818-294.84 1.9275-277.91-0.0533-287.32-0.1153-294.28-1.9393zm574.19-62.01c0.71095-1.1504 9.6501-761.65 9.2564-787.5l-0.25893-17-90.5-1.0479c-49.775-0.57632-90.804-0.90775-91.176-0.73652s-0.26158 1.7575 0.24532 3.5249c1.3076 4.5593 0.34498 6.6083-3.3754 7.1849-1.7565 0.27219-55.06 0.66622-118.45 0.87561-95.359 0.31499-115.45 0.14979-116.37-0.95678-1.0437-1.2576-0.17342-5.1792 2.5453-11.47 0.62904-1.4555-1.2159-1.6904-17.607-2.2412-10.07-0.33841-50.995-0.90249-90.945-1.2535l-72.635-0.63821-0.60829 20.379c-1.0308 34.534-9.1061 783.73-8.4545 784.38 0.33689 0.3369 126.32 2.103 279.97 3.9246 334.99 3.9715 317.58 3.831 318.36 2.5716zm-277.5-880.88c0-7.5266-3.8183-15.23-9.817-19.805-8.2269-6.2748-16.31-5.3916-24.13 2.6367-6.2347 6.4009-8.5133 14.083-6.0776 20.489l0.97525 2.5651h39.05v-5.8858z" fill="#d7d7d7"/>
  <path d="m120.06 951.7c-21.836-2.5723-38.879-14.191-44.225-30.149-1.1051-3.2985-3.813-7.0662-9.0198-12.55-4.9094-5.1705-8.5146-10.103-10.598-14.5l-3.1571-6.6637v-834l3.2279-6.815c5.4347-11.474 16.415-20.369 31.272-25.331 5.169-1.7265 12.271-1.8677 118-2.3454l112.5-0.50828 0.6394-8c1.2541-15.691 4.8082-27.632 10.411-34.977 3.2421-4.2506 12.701-11.121 21.225-15.416 10.553-5.3176 16.832-6.4927 34.225-6.4057 21.833 0.10928 34.652 3.2114 46.805 11.326 16.235 10.841 24.775 25.551 26.111 44.972l0.58454 8.5 108 0.50941c101.68 0.47958 108.32 0.6178 113.5 2.3603 17.154 5.7728 26.926 14.715 33.421 30.58 2.4748 6.0457 4.7434 9.5897 8.9859 14.038 3.1214 3.2725 6.8944 8.5516 8.3843 11.731l2.709 5.7812v835l-2.933 6c-5.575 11.405-17.348 20.526-32.612 25.267-5.0682 1.5741-25.61 1.7031-289.95 1.8213-156.48 0.07-285.85-0.0318-287.5-0.2262zm564.27-76.862c0.85601-60.136 9.0636-786 8.8896-786.17-0.40897-0.40898-183.8-2.5201-184.2-2.1204-0.22343 0.22342 0.06762 2.1224 0.64677 4.2199 0.76303 2.7634 0.74189 4.1249-0.07674 4.9438s-32.948 1.2093-118.58 1.4226l-117.45 0.29246v-2.8073c0-1.544 0.907-4.4996 2.0156-6.5679 1.503-2.8043 1.6937-3.8639 0.75-4.1669-2.3319-0.74865-182.24-2.4731-182.91-1.7532-0.93423 1.0007-10.02 804.47-9.1064 805.28 0.93508 0.83313 501.63 6.7047 558.25 6.5465l41.5-0.11596 0.27045-19zm-277.2-859.02c0.74725-3.9832-0.76202-10.981-3.545-16.436-3.6233-7.1023-12.384-13.02-19.306-13.042-3.2859-0.01028-9.184 3.0594-13.053 6.7932-5.4721 5.2815-7.6653 10.067-7.6653 16.727 0 9.879-0.96129 9.4741 22.49 9.4741h20.42l0.65978-3.5169z" fill="#c7c7c7"/>
  <path d="m117.53 950.37c-17.331-2.2612-32.868-12.402-39.119-25.532-1.5712-3.3-2.8571-6.5524-2.8575-7.2276s-3.3227-4.4056-7.3828-8.29c-4.4825-4.2885-8.7049-9.5016-10.75-13.272l-3.368-6.21v-837.04l3.2741-6.6507c5.5064-11.185 16.933-19.967 31.789-24.431 5.5104-1.6559 13.841-1.8083 115.94-2.1216 60.5-0.18562 110.97-0.09551 112.16 0.20026 1.8198 0.45327 2.3358 1.6774 3.2844 7.7915 0.61895 3.9896 1.3458 8.666 1.6153 10.392 0.47991 3.0739 0.56837 3.1206 4.3141 2.279 5.9793-1.3434 40.359-10.815 40.778-11.235 0.20648-0.20647-0.30502-2.0039-1.1367-3.9943-1.4382-3.442-1.4095-3.6738 0.58734-4.7425 1.4169-0.75832 8.5651-1.0134 21.989-0.78462 14.366 0.24482 20.012 0.01894 20.331-0.81342 0.24278-0.6338 2.6099-1.6499 5.2603-2.258s7.2938-1.8001 10.319-2.649c7.6126-2.1361 19.498-5.3076 25.656-6.8462l5.1556-1.2881 0.59435 2.9718c0.3269 1.6345 0.59436 4.6984 0.59436 6.8088v3.837l107.75 0.33207c119.16 0.36722 111.03-0.07997 125.2 6.8872 11.874 5.8347 21.87 18.374 24.545 30.79 0.50453 2.3419 2.442 4.9889 6.0958 8.3283 3.4648 3.1666 6.5124 7.2438 8.6304 11.546l3.2741 6.6506 0.25476 415c0.22978 374.33 0.10116 415.53-1.3125 420.39-4.0466 13.92-15.81 24.43-33.488 29.921-5.0676 1.5739-25.642 1.7044-289.95 1.84-156.48 0.0803-286.98-0.1783-290.02-0.5746zm566.55-56.083c0.75505-1.2217 9.5928-754.16 9.2194-785.45l-0.25056-21-50-0.59852c-27.5-0.32919-68.9-0.77919-92-1l-42-0.40148 0.2912 4.6655c0.16016 2.566-0.06484 4.8804-0.5 5.1429s-53.216 0.63809-117.29 0.83448l-116.5 0.35709-0.32586-2.2982c-0.17923-1.264 0.62922-4.1305 1.7966-6.3701s1.8675-4.3269 1.5559-4.6385c-0.81213-0.81214-184.4-2.6566-185.19-1.8606-0.3643 0.3643-2.5847 167.5-4.9342 371.41-4.522 392.47-4.9128 434.07-4.0849 434.9 0.44214 0.44215 510.55 6.824 576.88 7.2171 14.917 0.08842 22.913-0.2254 23.34-0.91596z" fill="#b6b6b6"/>
  <path d="m110.66 947.76c-16.602-4.478-26.887-12.946-32.501-26.76-1.6982-4.1783-4.0864-7.2331-9.897-12.66-5.6234-5.2516-8.5292-8.9207-10.935-13.807l-3.276-6.6544-0.29333-413.02c-0.21605-304.21 0.00472-414.6 0.83801-419.02 3.0936-16.407 17.934-29.847 37.543-34.001 10.255-2.1724 223.56-2.2355 225.36-0.06664 2.8345 3.4153 4.2631 30.807 2.0006 38.358-1.3452 4.49-4.6611 8.5069-8.7266 10.571-1.4949 0.75915-7.2004 2.8275-12.679 4.5964s-11.715 4.1108-13.858 5.2044c-4.583 2.3381-2.8946 2.3263-117.64 0.8217-40.403-0.52978-73.769-0.63049-74.145-0.22381s-2.5276 165.21-4.7801 366.24c-2.2525 201.02-4.3883 382.46-4.746 403.2l-0.65052 37.696 2.3912 0.48681c4.9375 1.0052 598.9 7.0171 599.75 6.0705 0.6475-0.71691 7.841-596.91 9.4046-779.45l0.23556-27.5-30-0.63159c-16.5-0.34737-59.22-0.92697-94.932-1.288-63.198-0.63888-64.97-0.7093-66.32-2.6368-1.9964-2.8503-9.1543-6.217-22.277-10.478-17.72-5.7536-21.187-8.0084-24.565-15.979-2.7946-6.5926-1.6225-31.11 1.6773-35.086 1.7501-2.1088 207.2-2.048 217.16 0.06423 18.813 3.9867 33.025 16.361 37.367 32.536 1.4596 5.4367 2.7022 7.5133 7.5961 12.695 3.2181 3.4071 7.0751 8.8071 8.5711 12l2.72 5.8053v415.5c0 393.49-0.0929 415.76-1.7538 420.5-3.7678 10.742-14.516 20.623-27.858 25.612l-6.3883 2.3885-289.5 0.1885c-250.55 0.1632-290.23-0.0071-294.89-1.2656zm371.12-853.99c0.31187-0.31187 3.1994-1.2288 6.4167-2.0376s8.3246-2.1068 11.35-2.8844c4.9643-1.2761 5.6218-1.2538 6.75 0.22871 0.6875 0.9034 1.25 2.4565 1.25 3.4514 0 1.6536-1.1304 1.8089-13.167 1.8089-7.2417 0-12.911-0.25517-12.6-0.56704zm-101.38-58.779c-6.5077-2.4055-12.83-8.7567-12.846-12.904-0.00604-1.6038 1.5385-1.75 18.493-1.75 18.115 0 18.5 0.04364 18.5 2.0956 0 5.1847-8.7742 12.286-16.5 13.354-2.2951 0.3173-5.5548-0.0217-7.6478-0.79536z" fill="#868686"/>
  <path d="m95.506 921.27c-7.1058-1.0462-16.345-4.4781-21.451-7.9678-6.3752-4.3575-14.38-13.48-17.304-19.719l-2.6959-5.7526-0.29333-413c-0.21605-304.2 0.00472-414.58 0.83801-419 3.1094-16.49 17.995-29.905 37.757-34.026 6.08-1.2677 22.911-1.4462 115.86-1.2287l108.75 0.25445 0.92348 4c0.50791 2.2 0.97804 10.75 1.0447 19 0.17761 21.973-1.0461 23.798-19.879 29.657-5.5 1.7111-12.25 4.2457-15 5.6324l-5 2.5214-93-1.054c-69.909-0.79229-93.278-0.76883-94.118 0.09452-1.4997 1.5401-10.74 806.67-9.2751 808.15 0.87563 0.88183 491.46 7.215 575.6 7.4308l27.205 0.06974 0.46949-3.25c0.25821-1.7875 2.302-174.02 4.5417-382.75s4.3152-388.95 4.6122-400.5 0.18609-21.513-0.24642-22.141c-0.56985-0.82688-26.532-1.4595-94.286-2.2976l-93.5-1.1565-3-2.8405c-4.1434-3.9231-7.4362-5.431-22.191-10.162-22.136-7.0981-25.286-10.097-25.979-24.73-0.22578-4.7694 0.17023-12.497 0.88002-17.172l1.2905-8.5 104.79-0.25461c88.351-0.21467 105.88-0.02733 111.74 1.1941 18.437 3.8443 32.944 16.097 37.392 31.583 1.4385 5.0086 1.5624 44.127 1.3313 420.52l-0.25476 415-3.2741 6.6506c-6.1918 12.577-20.524 22.424-36.884 25.34-6.6007 1.1765-52.473 1.3839-289.84 1.3106-155.1-0.04788-284.5-0.45472-287.55-0.90409zm281.89-888.96c-3.8549-2.0365-9.842-8.5498-9.842-10.707 0-0.9837 4.1948-1.2722 18.5-1.2722s18.5 0.28846 18.5 1.2722c0 2.2352-6.0615 8.7186-10.057 10.757-4.9398 2.5201-12.277 2.4987-17.101-0.04989z" fill="#cf691e"/>
  <path d="m91.276 916.77c-8.0853-1.9588-16.181-6.1424-21.986-11.362-6.0638-5.4519-9.1269-10.172-11.177-17.225-1.4136-4.8628-1.5423-45.967-1.3125-419.37l0.25477-413.98 2.8742-6.2224c3.5058-7.5898 10.877-14.861 19.455-19.191 12.41-6.2644 8.009-6.0555 127.89-6.0717l109.21-0.01478 1.215 2.25c0.79433 1.471 1.2393 7.6164 1.2852 17.75 0.10216 22.556-1.0368 24.279-19.93 30.157-5.5 1.7111-12.25 4.2457-15 5.6324l-5 2.5214-93-1.054c-69.909-0.79229-93.278-0.76883-94.118 0.09452-1.4997 1.5401-10.74 806.67-9.2751 808.15 0.87563 0.88183 491.46 7.215 575.6 7.4308l27.205 0.06974 0.46949-3.25c0.25821-1.7875 2.302-174.02 4.5417-382.75s4.3152-388.95 4.6122-400.5 0.18609-21.513-0.24642-22.141c-0.56985-0.82688-26.532-1.4595-94.286-2.2976l-93.5-1.1565-3-2.8405c-4.1434-3.9231-7.4362-5.431-22.191-10.162-15.301-4.9065-20.353-7.6276-23.472-12.643-2.1552-3.4665-2.3286-4.77-2.2284-16.759 0.05974-7.15 0.61554-14.249 1.2351-15.776l1.1265-2.7759 107.76 0.27589c107.17 0.27437 107.8 0.28767 113.31 2.4026 14.153 5.4251 22.135 11.937 27.171 22.167l3.2806 6.6638v832.08l-3.2806 6.6638c-5.5178 11.208-17.339 19.96-31.459 23.289-9.1747 2.1632-575.1 2.1039-584.04-0.06117zm286.78-884.09c-1.65-0.86832-4.2375-2.7345-5.75-4.147-5.1891-4.8462-4.2681-5.1941 13.75-5.1941s18.936 0.34641 13.75 5.1988c-6.1626 5.7658-15.343 7.5142-21.75 4.1424z" fill="#9b4e15"/>
  <path d="m99.056 916.71-7.5-1.5105c-12.655-2.5554-25.123-11.808-30.145-22.37l-2.853-6v-832l2.853-6c4.7491-9.9877 14.257-17.461 28.145-22.123 5.1922-1.7428 11.671-1.8628 115.76-2.1449l110.26-0.29876 1.0288 2.706c0.56585 1.4883 1.2493 8.3658 1.5188 15.283 0.40551 10.408 0.18286 13.436-1.2909 17.554-2.2877 6.3929-5.3668 8.4435-19.556 13.024-6.1068 1.9712-12.796 4.5352-14.864 5.6977l-3.7607 2.1136-93.3-1.0998c-72.195-0.85097-93.557-0.8297-94.437 0.09402-0.83007 0.87128-2.3818 110.33-5.7443 405.19-4.317 378.57-4.5009 404.08-2.9216 405.25 1.2354 0.91621 7.9763 1.2527 25.244 1.2601 12.957 0.00555 138.08 1.3506 278.06 2.9889s264.94 2.9838 277.7 2.9899l23.205 0.01107 0.48199-3.25c0.26509-1.7875 2.3107-172 4.5458-378.25s4.313-386.92 4.6177-401.5c0.30464-14.575 0.19039-27.022-0.2539-27.66-0.59299-0.85158-25.66-1.4723-94.268-2.3342l-93.46-1.1741-3.4825-3.0577c-4.3369-3.8078-10.371-6.4698-25.143-11.093-12.978-4.0613-17.404-6.5976-20.392-11.684-1.7864-3.041-2.0304-4.9952-1.8727-14.997 0.09976-6.325 0.58224-12.85 1.0722-14.5l0.89079-3h105.93c99.988 0 106.26 0.1031 111.93 1.8387 14.428 4.4215 25.406 13.45 29.429 24.202l2.0706 5.5342v828.85l-2.0706 5.5342c-3.9363 10.521-14.497 19.353-28.929 24.195-5.2913 1.7754-16.333 1.8507-291 1.9854-157.02 0.07702-286.4-0.03991-287.5-0.25984zm280.5-884.45c-2.7429-1.1502-8-5.8296-8-7.1208 0-0.4471 6.5625-0.81291 14.583-0.81291 16.035 0 16.457 0.22353 10.113 5.3583-2.8278 2.2887-4.8905 3.0504-8.9362 3.2997-2.8929 0.17828-6.3848-0.14764-7.7598-0.72425z" fill="#7e3500"/>
 </g>
</svg>
