<?xml version="1.0" encoding="UTF-8"?>
<svg viewBox="0 0 744.09448 524.40942" xmlns="http://www.w3.org/2000/svg">
 <defs>
  <filter id="a">
   <feGaussianBlur stdDeviation="81.08492"/>
  </filter>
 </defs>
 <path transform="matrix(.11047 -.023735 .022163 .10315 300.37 92.346)" d="m-2512.5 56.332h5602.9v3419.3h-5602.9z" fill="#c8c4b7" filter="url(#a)"/>
 <path transform="matrix(.11047 -.023735 .022163 .10315 308.47 74.821)" d="m-2512.5 56.332h5602.9v3419.3h-5602.9z" fill="#ffe680"/>
 <g transform="matrix(.34629 0 0 .34629 227.09 -36.051)">
  <path transform="matrix(1.2585 -.23001 .21688 1.1867 -274.8 99.222)" d="m527.82 393.14a123.43 123.43 0 1 1 -246.87 0 123.43 123.43 0 1 1 246.87 0z" fill="#ecca3e"/>
  <path transform="matrix(1.2585 -.23001 .21688 1.1867 -248.76 68.254)" d="m527.82 393.14a123.43 123.43 0 1 1 -246.87 0 123.43 123.43 0 1 1 246.87 0z" fill="#d40000"/>
  <path d="m509.34 405.88-152.09 27.812-31.844 143.88c17.672 2.6926 36.123 2.7338 54.844-0.6875 84.379-15.421 141.36-91.532 129.09-171z" fill="#e00"/>
  <path d="m358.56 281.16c-10.467-0.1047-21.125 0.79104-31.844 2.75-85.752 15.672-143.34 94.018-128.56 174.88 11.551 63.205 63.973 109.14 127.25 118.78l31.844-143.88 152.09-27.812c-0.1997-1.2933-0.26335-2.5801-0.5-3.875-12.93-70.75-77.016-120.11-150.28-120.84z" fill="#f00"/>
  <path d="m294.21 361.94-11.417 8.4406-21.06 15.749c-8.5971 18.275-7.3982 37.665-2.0165 58.264 13.962 53.441 53.709 79.564 109.79 73.192 28.709-3.2616 55.008-12.916 71.137-33.43l29.248-36.677-175.68-85.539z" fill="#a00"/>
  <path transform="matrix(.98371 -.17978 .16952 .92756 -78.014 79.234)" d="m527.82 393.14a123.43 123.43 0 1 1 -246.87 0 123.43 123.43 0 1 1 246.87 0z" fill="#d40000"/>
  <path transform="matrix(.98371 -.17978 .16952 .92756 -69.307 71.273)" d="m527.82 393.14a123.43 123.43 0 1 1 -246.87 0 123.43 123.43 0 1 1 246.87 0z" fill="#f00"/>
 </g>
</svg>
